<svg xmlns="http://www.w3.org/2000/svg" viewBox="0 0 500 500">
  <defs>
    <linearGradient id="g" x1="0" y1="0" x2="1" y2="1"><stop offset="0" stop-color="#12a86b"/><stop offset="1" stop-color="#0b5c99"/></linearGradient>
  </defs>
  <circle cx="250" cy="250" r="220" fill="url(#g)" opacity=".95"/>
  <path d="M95 322c58-88 116-132 173-132 54 0 100 35 137 105" fill="none" stroke="#fff" stroke-width="18" stroke-linecap="round" opacity=".9"/>
  <path d="M230 345c15-52 28-96 38-132" stroke="#fff" stroke-width="9" stroke-dasharray="18 18" stroke-linecap="round"/>
  <rect x="117" y="176" width="266" height="135" rx="24" fill="#fff"/>
  <rect x="143" y="201" width="58" height="45" rx="8" fill="#19384e"/>
  <rect x="214" y="201" width="58" height="45" rx="8" fill="#19384e"/>
  <rect x="285" y="201" width="58" height="45" rx="8" fill="#19384e"/>
  <rect x="148" y="261" width="190" height="16" rx="8" fill="#12a86b"/>
  <circle cx="176" cy="318" r="25" fill="#111"/><circle cx="324" cy="318" r="25" fill="#111"/>
  <circle cx="176" cy="318" r="10" fill="#ddd"/><circle cx="324" cy="318" r="10" fill="#ddd"/>
  <path d="M116 370c40 20 81 29 123 20s77-46 145-22" fill="none" stroke="#fff" stroke-width="13" stroke-linecap="round" opacity=".75"/>
</svg>
